<?xml version="1.0" standalone="no"?><!DOCTYPE svg PUBLIC "-//W3C//DTD SVG 1.1//EN" "http://www.w3.org/Graphics/SVG/1.1/DTD/svg11.dtd"><svg t="1666943211834" class="icon" viewBox="0 0 1024 1024" version="1.1" xmlns="http://www.w3.org/2000/svg" p-id="16976" xmlns:xlink="http://www.w3.org/1999/xlink" width="48" height="48"><path d="M910.9 958.5H278.3c-29.9 0-54.2-24.3-54.2-54.2v-787c0-29.9 24.3-54.2 54.2-54.2h491.3c10 0 18.1 8.1 18.1 18.1v135.6H947c10 0 18.1 8.1 18.1 18.1v669.4c0 29.8-24.3 54.2-54.2 54.2zM278.3 99.3c-10 0-18.1 8.1-18.1 18.1v786.9c0 10 8.1 18.1 18.1 18.1h632.6c10 0 18.1-8.1 18.1-18.1V252.9H769.5c-10 0-18.1-8.1-18.1-18.1V99.3H278.3z" fill="#FF4884" p-id="16977"></path><path d="M947.4 253H769.9c-10 0-18.1-8.1-18.1-18.1V81.2c0-7.1 4.1-13.5 10.6-16.4 6.4-2.9 14-1.9 19.3 2.8L801.9 85c0.2 0.1 0.3 0.3 0.5 0.4l156.9 135.8c5.7 4.9 7.7 12.9 5.1 20-2.7 7.1-9.4 11.8-17 11.8zM788 216.8h111l-111-96.1v96.1zM664.5 781.5H79.4c-11.4 0-20.7-9.3-20.7-20.7V490.6c0-11.4 9.3-20.7 20.7-20.7h585.2c11.4 0 20.7 9.3 20.7 20.7v270.2c-0.1 11.4-9.4 20.7-20.8 20.7z" fill="#FF4884" p-id="16978"></path><path d="M220.6 732l-42.7-78.7H149V732h-41.6V524h72.5c43.6 0 78.1 15.2 78.1 62.9 0 31.2-15.7 50.6-39.6 59.9L267 732h-46.4zM149 620.4h27c26.7 0 41.3-11.2 41.3-33.4 0-22.5-14.6-30.1-41.3-30.1h-27v63.5zM394.3 678.6h-67.4L312.2 732H270l66.7-208h48.9l66.8 208h-43.6l-14.5-53.4z m-9-32.3l-6.2-22.8c-6.5-21.6-12.1-45.5-18.3-68h-1.1c-5.3 22.8-11.5 46.4-17.7 68l-6.2 22.8h49.5zM590.1 732l-42.7-78.7h-28.9V732h-41.6V524h72.5c43.6 0 78.1 15.2 78.1 62.9 0 31.2-15.7 50.6-39.6 59.9l48.6 85.1h-46.4z m-71.6-111.6h27c26.7 0 41.3-11.2 41.3-33.4 0-22.5-14.6-30.1-41.3-30.1h-27v63.5z" fill="#FFFFFF" p-id="16979"></path></svg>